<svg width="1167.61" height="862.87" xmlns="http://www.w3.org/2000/svg" xmlns:xlink="http://www.w3.org/1999/xlink" data-name="Layer 1">
 <defs>
  <linearGradient y2="0.000083" x2="0.499973" y1="0.999992" x1="0.499973" id="cb66075b-2ebe-455c-893b-1def13a8d59c">
   <stop stop-opacity="0.25" stop-color="gray" offset="0"/>
   <stop stop-opacity="0.12" stop-color="gray" offset="0.54"/>
   <stop stop-opacity="0.1" stop-color="gray" offset="1"/>
  </linearGradient>
  <linearGradient xlink:href="#cb66075b-2ebe-455c-893b-1def13a8d59c" y2="264.07" x2="878.34" y1="879.41" x1="878.34" id="b7415561-023b-44da-badb-9b3453976a8a"/>
 </defs>
 <title>doctors</title>
 <g>
  <title>background</title>
  <rect fill="none" id="canvas_background" height="818" width="1317" y="-1" x="-1"/>
 </g>
 <g>
  <title>Layer 1</title>
  <path id="svg_1" opacity="0.1" fill="#2196f3" d="m76.42,338.200001l101.48,0l0,138.33l-94.06,0c-0.24,1.43 -0.48,2.85 -0.75,4.28l94.81,0l0,111.54c-0.16,0 -0.32,-0.12 -0.47,-0.18q-4,-1.59 -8,-3.37c-0.57,-0.26 -1.13,-0.53 -1.71,-0.78q-4,-1.89 -8,-4c-0.93,-0.49 -1.86,-1 -2.77,-1.52a166.43,166.43 0 0 1 -39.9,-31.06c-0.35,-0.33 -0.67,-0.69 -1,-1c-1.62,-1.76 -3.21,-3.54 -4.75,-5.36c-0.58,-0.67 -1.14,-1.35 -1.71,-2c-1.82,-2.22 -3.58,-4.52 -5.28,-6.83c-0.26,-0.35 -0.5,-0.69 -0.75,-1a147.72,147.72 0 0 1 -17.2,-31.1c-0.14,-0.33 -0.27,-0.69 -0.4,-1c-1.38,-3.5 -2.63,-7.05 -3.71,-10.67c-0.46,-1.51 -0.91,-3 -1.29,-4.57c-0.14,-0.45 -0.25,-0.91 -0.37,-1.36c-5.62,-22.15 -6.27,-45.17 -6.27,-68.08q0,-4 0,-8q0.12,-14.03 0.33,-28.03q0.08,-3.6 0.15,-7.23q0.21,-9.19 0.6,-18.42c0.06,-1.7 0.14,-3.41 0.23,-5.1q0.06,-1.47 0.15,-2.94q0.27,-5.31 0.64,-10.55z"/>
  <path id="svg_2" opacity="0.1" fill="#2196f3" d="m177.9,184.180001l-55.67,0a423.75,423.75 0 0 1 29.61,-40.74c8.28,-10.16 17,-20.06 26.06,-29.6l0,70.34z"/>
  <path id="svg_3" opacity="0.1" fill="#2196f3" d="m177.9,188.440001l0,145.48l-101.16,0c0,-0.42 0.06,-0.85 0.1,-1.27c0.09,-1.15 0.18,-2.29 0.28,-3.44c0.1,-1.34 0.23,-2.68 0.36,-4s0.26,-2.92 0.42,-4.37s0.29,-2.92 0.45,-4.37s0.32,-2.9 0.5,-4.34s0.34,-2.9 0.54,-4.34c0.15,-1.19 0.3,-2.39 0.47,-3.59c0.23,-1.69 0.47,-3.38 0.72,-5.06c0,-0.26 0.08,-0.51 0.12,-0.76a348.93,348.93 0 0 1 7.44,-36.52a270.41,270.41 0 0 1 12.55,-37a277.87,277.87 0 0 1 18.88,-36.42l58.33,0z"/>
  <path id="svg_4" opacity="0.1" fill="#2196f3" d="m202.14,338.200001l0,138.33l216.76,0l0,-138.33l-216.76,0zm216.76,142.61l0,118.8c1.24,0.25 2.46,0.5 3.69,0.71c1.65,0.32 3.31,0.61 5,0.86l1,0.14c0.66,0.11 1.33,0.2 2,0.28c1.67,0.24 3.34,0.42 5,0.58c0.78,0.08 1.59,0.14 2.38,0.21l1.93,0.14l0,0c1.05,0.08 2.09,0.14 3.13,0.18c0.64,0 1.28,0.05 1.93,0.07s1,0 1.52,0l1.89,0c0.86,0 1.72,0 2.57,0l1.1,0c0.86,0 1.72,0 2.57,-0.08l0.05,0c0.6,0 1.19,0 1.79,-0.07a4.38,4.38 0 0 0 0.51,0c0.5,0 1,0 1.48,-0.06a2.09,2.09 0 0 1 0.34,0c1.11,-0.07 2.23,-0.16 3.36,-0.26s2.2,-0.22 3.33,-0.34l2.27,-0.28a199.13,199.13 0 0 0 27.45,-5.84c20.23,-5.64 40,-13.53 60.22,-19.3c26.12,-7.45 55,-11.12 80.24,-2.05l0,-93.69l-216.75,0zm-216.75,-296.63l0,-184.16a278.53,278.53 0 0 0 -70.42,8.25c-54.89,13.79 -104.18,43.7 -146.34,81.9l0,94l227.66,0l0,4.27l-10.91,0l0,145.48l216.76,0l0,-145.48l-161.22,0l0,-4.28l-55.53,0.02zm495.23,234.42c-13.58,-0.48 -27.08,-4.77 -39.3,-11.42c-23.34,-12.69 -42,-32.31 -62.84,-48.85c-43.3,-34.47 -97,-55.28 -152.09,-60.44l0,-113.71l309.41,0l0.77,-0.81l-55.95,235.23zm28.19,-5l29.89,32.81l0,-338.07c-10.06,1.27 -18.82,4.22 -29.89,8.59l0,296.67zm29.89,512.14l0,-444.93l-63.74,0c-0.16,-0.63 -0.34,-1.27 -0.54,-1.91c0.19,0.64 0.36,1.28 0.53,1.91l-248.56,0l0,107.24c2.36,1.75 4.69,3.6 7,5.46l0,0q3.74,3.06 7.43,6.19l2.48,2.05c1.19,1 2.4,2 3.6,2.95q3.61,2.91 7.27,5.76q1.83,1.44 3.68,2.83a502.09,502.09 0 0 0 61.64,40.31c4.82,2.69 9.69,5.28 14.59,7.81q4.89,2.52 9.85,4.94q7.44,3.63 15,7s0,0 0,0a550.6,550.6 0 0 0 146,42.52q16.78,2.47 33.71,3.9l0,-90.68l1,0l-0.94,296.65zm-313.25,-440.65l0,-151.17l313.25,0l0,-145.48l-313.25,296.65zm313.25,590.39l0,-598.95l0,0l0,-138.33l0,737.28zm24.24,-230.06l0,-690.98l38.14,-41.87q-18.96,-3.13 -38.14,-4.43l0,737.28zm-24.24,460.12l0,-829.01l327.99,0l0,-138.33l-327.99,967.34zm302.68,301.88l1.07,-159.27l-279.51,0l0,-726.77a547.32,547.32 0 0 0 58.7,-0.71l0,0l0.34,0q14,-0.9 27.87,-2.56l0.21,0a512.49,512.49 0 0 0 143.23,-38.26m132,-318.93q-1.73,-4 -3.55,-8c-2.26,-5 -4.64,-9.86 -7.1,-14.71l-23.7,0l0,138.32l59.91,0c-0.05,-39.18 -9.97,-79.18 -25.56,-115.61zm-34.35,119.89l0,137c16.87,-16.17 31.14,-34.68 41.4,-55.84c12.35,-25.49 18,-53.07 18.47,-81.17l-59.87,0.01zm0,-182.92l0,36l21.48,0a391.16,391.16 0 0 0 -21.48,-36zm-206,-162.6c-1.58,-0.61 -3.17,-1.22 -4.76,-1.8a432.15,432.15 0 0 0 -51.3,-15.42l-58.38,64.06l0,0l-1.14,1.23l0.75,0.81l207.78,0a443.9,443.9 0 0 0 -92.95,-48.88zm99.05,53.15l-216.79,0l-4.26,3.89l0,141.59l37.35,0a0.05,0.05 0 0 0 0,0l0,0l266.4,0l0,-68.6a432.49,432.49 0 0 0 -82.7,-76.88z"/>
  <path id="svg_5" opacity="0.1" fill="#2196f3" d="m177.9,261.830001l0,72.09l-101.16,0c0,-0.42 0.06,-0.85 0.1,-1.27c0.09,-1.15 0.18,-2.29 0.28,-3.44c0.1,-1.34 0.23,-2.68 0.36,-4s0.26,-2.92 0.42,-4.37s0.29,-2.92 0.45,-4.37s0.32,-2.9 0.5,-4.34s0.34,-2.9 0.54,-4.34c0.15,-1.19 0.3,-2.39 0.47,-3.59c0.23,-1.69 0.47,-3.38 0.72,-5.06c0,-0.26 0.08,-0.51 0.12,-0.76a348.93,348.93 0 0 1 7.44,-36.52l89.76,-0.03z"/>
  <path id="svg_6" opacity="0.1" fill="#2196f3" d="m76.42,338.200001l101.48,0l0,138.33l-94.06,0c-0.24,1.43 -0.48,2.85 -0.75,4.28l94.81,0l0,111.54c-0.16,0 -0.32,-0.12 -0.47,-0.18q-4,-1.59 -8,-3.37c-0.57,-0.26 -1.13,-0.53 -1.71,-0.78q-4,-1.89 -8,-4c-0.93,-0.49 -1.86,-1 -2.77,-1.52a166.43,166.43 0 0 1 -39.9,-31.06c-0.35,-0.33 -0.67,-0.69 -1,-1c-1.62,-1.76 -3.21,-3.54 -4.75,-5.36c-0.58,-0.67 -1.14,-1.35 -1.71,-2c-1.82,-2.22 -3.58,-4.52 -5.28,-6.83c-0.26,-0.35 -0.5,-0.69 -0.75,-1a147.72,147.72 0 0 1 -17.2,-31.1c-0.14,-0.33 -0.27,-0.69 -0.4,-1c-1.38,-3.5 -2.63,-7.05 -3.71,-10.67c-0.46,-1.51 -0.91,-3 -1.29,-4.57c-0.14,-0.45 -0.25,-0.91 -0.37,-1.36c-5.62,-22.15 -6.27,-45.17 -6.27,-68.08q0,-4 0,-8q0.12,-14.03 0.33,-28.03q0.08,-3.6 0.15,-7.23q0.21,-9.19 0.6,-18.42c0.06,-1.7 0.14,-3.41 0.23,-5.1q0.06,-1.47 0.15,-2.94q0.27,-5.31 0.64,-10.55z"/>
  <polygon id="svg_7" opacity="0.1" fill="#2196f3" points="278.44 209.28 278.44 333.92 202.13 333.92 202.13 209.28 213.01 209.28 213.01 167.08 257.67 167.08 257.67 209.28 278.44 209.28"/>
  <rect id="svg_8" opacity="0.1" fill="#2196f3" height="138.33" width="76.3" y="338.19" x="202.13"/>
  <path id="svg_9" opacity="0.1" fill="#2196f3" d="m202.14,480.810001l76.3,0l0,115a197.64,197.64 0 0 1 -27.45,5.83c-0.76,0.11 -1.51,0.2 -2.27,0.28c-1.12,0.13 -2.23,0.25 -3.34,0.35l-3.35,0.27l-0.34,0l-1.48,0.08l-0.51,0c-0.6,0 -1.19,0.07 -1.79,0.08l-0.05,0c-0.86,0 -1.71,0.06 -2.57,0.08l-1.1,0c-0.85,0 -1.7,0 -2.57,0l-1.88,0l-1.53,0c-0.65,0 -1.29,0 -1.94,-0.08q-1.54,-0.06 -3.12,-0.18l0,0l-1.93,-0.14c-0.8,-0.06 -1.6,-0.14 -2.39,-0.22q-2.52,-0.22 -5,-0.57l-2,-0.28l-1,-0.14c-1.67,-0.25 -3.33,-0.53 -5,-0.85c-1.24,-0.22 -2.46,-0.47 -3.69,-0.73l0,-118.78z"/>
  <rect id="svg_10" opacity="0.1" fill="#2196f3" height="139.35" width="62.92" y="194.56" x="692.53"/>
  <polygon id="svg_11" opacity="0.1" fill="#2196f3" points="755.46 338.19 755.46 476.53 443.15 476.53 443.15 416.86 609.5 416.86 609.5 452.06 692.53 452.06 692.53 338.19 755.46 338.19"/>
  <path id="svg_12" opacity="0.1" fill="#2196f3" d="m756.45,629.140001c-0.33,0 -0.66,0 -1,-0.06l0,90.75q-16.91,-1.39 -33.7,-3.89a551.33,551.33 0 0 1 -146.06,-42.5q-20.13,-9.08 -39.44,-19.79a503.91,503.91 0 0 1 -61.63,-40.31q-7.38,-5.64 -14.54,-11.53c-3.31,-2.74 -6.59,-5.54 -9.93,-8.25c-2.3,-1.87 -4.63,-3.72 -7,-5.48l0,-107.27l248.56,0c-0.18,-0.64 -0.34,-1.27 -0.52,-1.91c0.19,0.64 0.37,1.27 0.53,1.91l63.74,0l0,148.26c0.33,0.01 0.66,0.04 0.99,0.07z"/>
  <path id="svg_13" opacity="0.1" fill="#2196f3" d="m919.56,184.180001l-41,0l0,-12.74l18.37,0l0,-37.95q2.39,0.88 4.76,1.8l0,36.15l17.86,0l0.01,12.74z"/>
  <path id="svg_14" opacity="0.1" fill="#2196f3" d="m1018.35,333.920001l-201.3,0a0.13,0.13 0 0 0 0.06,0l-0.09,0l-37.32,0l0,-139.35l10.58,0l0,103l48.34,0l0,-61l39.95,0l0,-48.13l41,0l0,48.16l39.93,0l0,61l58.86,0l-0.01,36.32z"/>
  <path id="svg_15" opacity="0.1" fill="#2196f3" d="m779.7,338.200001l0,138.33l238.66,0l0,-138.33l-238.66,0zm542.07,301.15l0.34,-109.5l-65.09,0l0,-49l-477.32,0l0,240.53a547.32,547.32 0 0 0 58.7,-0.71l0,0l0.34,0q14,-0.9 27.87,-2.56l0.21,0a512.49,512.49 0 0 0 143.23,-38.26"/>
  <path id="svg_16" opacity="0.1" fill="#2196f3" d="m1111.9,480.810001l55.67,0c-0.48,28.09 -6.12,55.68 -18.47,81.16c-10.26,21.17 -24.53,39.68 -41.4,55.85l0,-88l4.2,0l0,-49.01z"/>
  <path id="svg_17" opacity="0.1" fill="#2196f3" d="m1167.61,476.530001l-55.71,0l0,-115.61l30.15,0c15.59,36.43 25.51,76.43 25.56,115.61z"/>
  <rect id="svg_18" opacity="0.1" fill="#2196f3" height="43.69" width="33.71" y="233.3" x="721.75"/>
  <rect id="svg_19" opacity="0.1" fill="#2196f3" height="10.06" width="33.71" y="323.86" x="721.75"/>
  <rect id="svg_20" opacity="0.1" fill="#2196f3" height="29.35" width="33.71" y="338.19" x="721.75"/>
  <rect id="svg_21" opacity="0.1" fill="#2196f3" height="43.69" width="33.71" y="414.42" x="721.75"/>
  <rect id="svg_22" opacity="0.1" fill="#2196f3" height="43.69" width="33.71" y="504.98" x="721.75"/>
  <path id="svg_23" opacity="0.1" fill="#2196f3" d="m755.46,629.070001c0.33,0 0.66,0 1,0.07c-0.33,0 -0.66,0 -1,-0.06l0,10.15l-33.71,0l0,-43.69l33.71,0l0,33.53z"/>
  <path id="svg_24" opacity="0.1" fill="#2196f3" d="m755.46,686.090001l0,33.74q-16.92,-1.39 -33.71,-3.89l0,-29.85l33.71,0z"/>
  <rect id="svg_25" opacity="0.1" fill="#2196f3" height="3.21" width="144.47" y="473.32" x="443.15"/>
  <rect id="svg_26" opacity="0.1" fill="#2196f3" height="12.3" width="144.47" y="480.8" x="443.15"/>
  <rect id="svg_27" opacity="0.1" fill="#2196f3" height="19.78" width="144.47" y="533.42" x="443.15"/>
  <path id="svg_28" opacity="0.1" fill="#2196f3" d="m587.62,593.520001l0,19.78l-113,0q-7.38,-5.62 -14.54,-11.54c-3.32,-2.73 -6.6,-5.53 -9.93,-8.24l137.47,0z"/>
  <path id="svg_29" opacity="0.1" fill="#2196f3" d="m587.62,653.610001l0,19.83l-11.93,0q-20.13,-9.08 -39.44,-19.79l51.37,-0.04z"/>
  <rect id="svg_30" opacity="0.1" fill="#2196f3" height="28.44" width="28.44" y="351.6" x="838.4"/>
  <rect id="svg_31" opacity="0.1" fill="#2196f3" height="28.44" width="28.44" y="219.09" x="222.62"/>
  <rect id="svg_32" opacity="0.1" fill="#2196f3" height="28.44" width="28.44" y="285.15" x="222.62"/>
  <rect id="svg_33" opacity="0.1" fill="#2196f3" height="28.44" width="28.44" y="351.21" x="222.62"/>
  <rect id="svg_34" opacity="0.1" fill="#2196f3" height="28.44" width="28.44" y="417.26" x="222.62"/>
  <rect id="svg_35" opacity="0.1" fill="#2196f3" height="28.44" width="28.44" y="483.32" x="222.62"/>
  <rect id="svg_36" opacity="0.1" fill="#2196f3" height="28.44" width="28.44" y="549.38" x="222.62"/>
  <rect id="svg_37" opacity="0.1" fill="#2196f3" height="28.44" width="28.44" y="351.6" x="946.97"/>
  <rect id="svg_38" opacity="0.1" fill="#2196f3" height="28.44" width="28.44" y="421.75" x="838.4"/>
  <rect id="svg_39" opacity="0.1" fill="#2196f3" height="28.44" width="28.44" y="421.75" x="946.97"/>
  <rect id="svg_40" opacity="0.1" fill="#2196f3" height="28.44" width="28.44" y="491.89" x="838.4"/>
  <rect id="svg_41" opacity="0.1" fill="#2196f3" height="28.44" width="28.44" y="491.89" x="946.97"/>
  <rect id="svg_42" opacity="0.1" fill="#2196f3" height="28.44" width="28.44" y="562.04" x="838.4"/>
  <rect id="svg_43" opacity="0.1" fill="#2196f3" height="28.44" width="28.44" y="562.04" x="946.97"/>
  <rect id="svg_44" opacity="0.1" fill="#2196f3" height="28.44" width="28.44" y="632.19" x="838.4"/>
  <rect id="svg_45" opacity="0.1" fill="#2196f3" height="28.44" width="28.44" y="632.19" x="946.97"/>
  <polygon id="svg_46" opacity="0.1" fill="#2196f3" points="838.4 720.67 838.4 702.33 866.83 702.33 866.83 718.06 838.4 720.67"/>
  <path id="svg_47" opacity="0.1" fill="#2196f3" d="m80.58,298.350001l0,16.27l97.32,0l0,-16.27l-97.32,0zm107.01,15.25l-8,0l0,-14.22l8,0l0,14.22zm9.69,0l-8,0l0,-14.22l8,0l0,14.22zm9.67,0l-8,0l0,-14.22l8,0l0,14.22zm9.69,0l-8,0l0,-14.22l8,0l0,14.22zm9.68,0l-8,0l0,-14.22l8,0l0,14.22zm9.69,0l-8,0l0,-14.22l8,0l0,14.22zm9.69,0l-8,0l0,-14.22l8,0l0,14.22zm9.68,0l-8,0l0,-14.22l8,0l0,14.22zm9.68,0l-8,0l0,-14.22l8,0l0,14.22zm9.69,0l-8,0l0,-14.22l8,0l0,14.22z"/>
  <path id="svg_48" opacity="0.1" fill="#2196f3" d="m80.58,345.710001l0,16.27l97.32,0l0,-16.27l-97.32,0zm107.01,15.25l-8,0l0,-14.22l8,0l0,14.22zm9.69,0l-8,0l0,-14.22l8,0l0,14.22zm9.67,0l-8,0l0,-14.22l8,0l0,14.22zm9.69,0l-8,0l0,-14.22l8,0l0,14.22zm9.68,0l-8,0l0,-14.22l8,0l0,14.22zm9.69,0l-8,0l0,-14.22l8,0l0,14.22zm9.69,0l-8,0l0,-14.22l8,0l0,14.22zm9.68,0l-8,0l0,-14.22l8,0l0,14.22zm9.68,0l-8,0l0,-14.22l8,0l0,14.22zm9.69,0l-8,0l0,-14.22l8,0l0,14.22z"/>
  <path id="svg_49" opacity="0.1" fill="#2196f3" d="m80.58,393.080001l0,16.26l97.32,0l0,-16.26l-97.32,0zm107.01,15.23l-8,0l0,-14.22l8,0l0,14.22zm9.69,0l-8,0l0,-14.22l8,0l0,14.22zm9.67,0l-8,0l0,-14.22l8,0l0,14.22zm9.69,0l-8,0l0,-14.22l8,0l0,14.22zm9.68,0l-8,0l0,-14.22l8,0l0,14.22zm9.69,0l-8,0l0,-14.22l8,0l0,14.22zm9.69,0l-8,0l0,-14.22l8,0l0,14.22zm9.68,0l-8,0l0,-14.22l8,0l0,14.22zm9.68,0l-8,0l0,-14.22l8,0l0,14.22zm9.69,0l-8,0l0,-14.22l8,0l0,14.22z"/>
  <path id="svg_50" opacity="0.1" fill="#2196f3" d="m80.58,440.440001l0,16.26l97.32,0l0,-16.26l-97.32,0zm107.01,15.24l-8,0l0,-14.24l8,0l0,14.24zm9.69,0l-8,0l0,-14.24l8,0l0,14.24zm9.67,0l-8,0l0,-14.24l8,0l0,14.24zm9.69,0l-8,0l0,-14.24l8,0l0,14.24zm9.68,0l-8,0l0,-14.24l8,0l0,14.24zm9.69,0l-8,0l0,-14.24l8,0l0,14.24zm9.69,0l-8,0l0,-14.24l8,0l0,14.24zm9.68,0l-8,0l0,-14.24l8,0l0,14.24zm9.68,0l-8,0l0,-14.24l8,0l0,14.24zm9.69,0l-8,0l0,-14.24l8,0l0,14.24z"/>
  <path id="svg_51" opacity="0.1" fill="#2196f3" d="m81.05,487.780001c0.38,1.54 0.83,3.06 1.29,4.57l0,-3.54l8,0l0,14.21l-4.29,0c0.12,0.34 0.25,0.69 0.39,1l91.5,0l0,-16.24l-96.89,0zm115.89,15.24l-8,0l0,-14.21l8,0l0,14.21zm9.67,0l-8,0l0,-14.21l8,0l0,14.21zm9.69,0l-8,0l0,-14.21l8,0l0,14.21zm9.68,0l-8,0l0,-14.21l8,0l0,14.21zm9.69,0l-8,0l0,-14.21l8,0l0,14.21zm9.69,0l-8,0l0,-14.21l8,0l0,14.21zm9.68,0l-8,0l0,-14.21l8,0l0,14.21zm9.68,0l-8,0l0,-14.21l8,0l0,14.21zm9.69,0l-8,0l0,-14.21l8,0l0,14.21z"/>
  <path id="svg_52" opacity="0.1" fill="#2196f3" d="m103.59,535.140001c0.26,0.32 0.5,0.68 0.75,1l5.29,0l0,6.83l1.71,2l0,-8.87l8,0l0,14.34l-3.29,0c0.32,0.33 0.63,0.68 1,1l60.83,0l0,-16.3l-74.29,0zm25.46,15.3l-8,0l0,-14.28l8,0l0,14.28zm9.69,-14.28l-8,0l0,0l8,0zm9.69,0l-8,0l0,0l8,0zm9.68,0l-8,0l0,0l8,0zm9.68,0l-8,0l0,0l8,0zm9.69,0l-8,0l0,0l8,0z"/>
  <path id="svg_53" opacity="0.1" fill="#2196f3" d="m156.98,582.500001c0.92,0.52 1.85,1 2.78,1.51l0,-0.5l8,0l0,4.51c0.58,0.25 1.13,0.52 1.7,0.78l0,-5.29l8,0l0,8.66a3.26,3.26 0 0 0 0.47,0.17l0,-9.84l-20.95,0z"/>
  <path id="svg_54" opacity="0.1" fill="#2196f3" d="m817.05,333.920001l0,0a0.05,0.05 0 0 0 0,0zm-61.6,295.15l0,0l1,0l-1,0zm-65.27,-150.17c0.19,0.64 0.36,1.28 0.53,1.91l0,0c0.85,-0.63 0.67,-1.27 0.47,-1.91l-1,0zm191.14,5.19l0,0a0.05,0.05 0 0 0 0,0zm-794.14,-154.93l0,-140.72l44.67,0l0,-4.28l-44.67,145zm1291.88,744.82l0,0l1,0l-1,0zm-1312.49,-1039.99c0.19,0.64 0.36,1.28 0.53,1.91l0,0c624.46,444.28 624.28,443.64 624.08,443l-624.61,-444.91zm814.75,450.1l0,0a0.05,0.05 0 0 0 0,0zm-187.47,440.13l0,0l1,0l-1,0zm-3.67,-445.32c0.19,0.64 0.36,1.28 0.53,1.91l0,0c0.85,-0.63 0.67,-1.27 0.47,-1.91l-1,0z"/>
  <ellipse id="svg_55" opacity="0.1" fill="#2196f3" ry="15.65" rx="97.44" cy="847.22" cx="879.43"/>
  <ellipse id="svg_56" opacity="0.1" fill="#2196f3" ry="15.65" rx="97.44" cy="831.57" cx="439.97"/>
  <path id="svg_57" fill="url(#cb66075b-2ebe-455c-893b-1def13a8d59c)" d="m552.15,417.750001a0.53,0.53 0 0 0 -0.15,-0.26c-1.49,-1.47 -20.49,-28.34 -20.49,-28.34s-1,-3 -2.62,-6.9a6.86,6.86 0 0 0 1.15,-2.25a7.72,7.72 0 0 0 0.19,-1.05c0,-0.11 0.08,-0.2 0.11,-0.31a7.59,7.59 0 0 0 -0.1,-4.12a7.12,7.12 0 0 1 -0.41,1a16.72,16.72 0 0 0 -1.5,-3.34c-2.52,-4.34 -6.12,-8 -8.77,-12.23a33.09,33.09 0 0 1 -4.51,-21.96c0,0.39 0,0.79 0,1.18a34.24,34.24 0 0 1 0.6,-4.5a31.22,31.22 0 0 1 1.67,-4.94c2.38,-5.45 6.23,-10.2 8.57,-15.67a29.7,29.7 0 0 0 1.78,-5.73a32.1,32.1 0 0 0 0.89,-10.05c0,0.8 -0.13,1.6 -0.25,2.39a32.55,32.55 0 0 0 -9.19,-21.67c-8.17,-8.21 -19.9,-11.4 -31.12,-13.08a28.51,28.51 0 0 1 -13.1,-5c-4.31,-2.79 -9.88,-3.46 -14.92,-2.85a24.61,24.61 0 0 0 -15.19,7.51c-5.33,5.86 -7.64,14.16 -13.86,19.1c-3.77,3 -8.55,4.4 -12.94,6.44s-8.54,5 -9.95,9.38c0,0 0,-0.06 0,-0.09l0,0.25l-0.06,0.16c-1.46,5.18 1.36,10.45 2.83,15.62c1.53,5.35 1.63,11 1.71,16.53c0.11,6.76 0.21,13.53 0.1,20.3c-0.05,2.66 -0.14,5.35 -0.34,8a41.92,41.92 0 0 0 -6.87,2.76c-2.24,1.46 -10.62,10.51 -10.62,10.51l-16.39,62.62l0.22,0.25l-0.22,0.85l0.83,-0.19c2.32,2.5 9.25,9.62 16.73,14.06l0.7,12.28s0.84,12.32 12.17,17.41c0.26,4.27 1.07,21.61 -2.68,28.48a32,32 0 0 0 -3.54,16.28s1.31,10.42 -0.18,15.9a26,26 0 0 0 -0.19,11.16l0,0s0,1.21 0,3.29c0,11.09 0.13,46.63 0,50.65c-0.19,4.75 0,75 0,75s-0.93,35.11 -3.91,44.62s-2.23,41 -2.23,41s-1.87,37.51 4.74,44.91c0,0.33 -0.06,0.67 -0.07,1c0,0.15 0,0.32 0,0.47c-0.08,2.85 0.47,5.88 2.92,6.81c5,1.92 11.61,7.68 12.86,9.33s8.52,5.76 18,4.66a135.5,135.5 0 0 1 17.89,-0.82l0,0s3.74,-0.68 2.53,-5.33l0,0s0,0 0,0c-0.78,-2.9 -3.7,-7.36 -5.78,-10.29c0.38,0.1 0.75,0.18 1.1,0.25l0.36,0.07l0.28,0a3.8,3.8 0 0 0 0.46,0l0.2,0a3.43,3.43 0 0 0 0.56,0l0,0c2.51,-0.24 11.87,4.12 13.54,7s7.56,5.07 12,5.62c2.64,0.32 9.3,-0.22 14.89,-0.94a54.83,54.83 0 0 0 8.34,-1.52c1.32,-0.5 1.6,-2.1 1.22,-3.9l0,0a10.15,10.15 0 0 0 -3.46,-5.84c-1.62,-1.15 -3.76,-4.18 -5.34,-6.66l-0.42,-0.67c2.79,-2.66 7.83,-11.36 9.36,-13.16c1.86,-2.19 -3,-82.28 -3,-82.28l0,-40.15l7.45,-38l5.21,-20.11l4.47,-30.36s7.82,-35.46 5.41,-38.94l0,0c0,-0.07 -2,-36.58 -4.1,-45.35c-0.91,-3.91 -0.68,-12.71 -0.14,-21.27a4.2,4.2 0 0 0 1,-4.38a9.1,9.1 0 0 0 -0.58,-1.49c0,-0.15 0,-0.31 0,-0.46a68.86,68.86 0 0 1 13.47,-4.58c7.45,-1.46 5.59,-5.3 5.59,-5.3s1.68,-3.29 2.79,-5.3s0.19,-19.75 0,-21.21c-0.07,-0.59 -0.53,-3.85 -1.06,-7.55c2.39,-1.7 5.5,-3.81 8.89,-5.81c6.45,-3.82 5,-7.85 4.47,-8.9zm-97.2,253.53s-5.59,14.26 -3.35,17.91s-0.37,17.2 -0.37,17.2l-1.87,20.11s-5.21,37.3 -3.35,46.07c1.46,6.88 2,27.43 2.17,36l0,0a2.53,2.53 0 0 0 -0.37,0.18l-0.25,0.13c0.86,-3.37 0.5,-10.19 -3.77,-23.91l-0.36,-56.67s-0.66,-65.46 4.51,-72.78s7,-19.75 7,-19.75s-1.12,17.93 -1.85,22.68s1.86,12.83 1.86,12.83zm-10.41,140.86c-0.05,0.12 -0.11,0.24 -0.15,0.35l-0.28,-0.36a2.94,2.94 0 0 0 0.43,0.01z"/>
  <path id="svg_58" fill="#fff" d="m501.55,834.600001c-2.89,1.11 -18.56,3 -22.94,2.47s-10.18,-2.75 -11.83,-5.65s-10.9,-7.28 -13.38,-7a9,9 0 0 1 -3,-0.42a36.93,36.93 0 0 1 -5,-1.92a9.28,9.28 0 0 1 0.11,-3.8a6.09,6.09 0 0 1 0.22,-0.74a6.61,6.61 0 0 1 3.36,-3.74l0.36,-0.17a10.17,10.17 0 0 1 2.16,-0.66c7.86,-1.51 40.29,1.52 40.29,1.52s0.91,1.63 2.16,3.65c1.56,2.5 3.68,5.55 5.28,6.7a10.25,10.25 0 0 1 3.41,5.88c0.38,1.77 0.1,3.39 -1.2,3.88z"/>
  <path id="svg_59" opacity="0.1" d="m501.55,834.600001c-2.89,1.11 -18.55,3 -22.93,2.47s-10.18,-2.76 -11.84,-5.65s-10.89,-7.28 -13.37,-7s-8,-2.34 -8,-2.34s-0.86,-4 1.64,-6.73l5,3.55s13.38,4.15 15.86,8s7,6 13.53,6.39c4.88,0.32 16.09,-1.58 21.34,-2.53c0.35,1.73 0.08,3.35 -1.23,3.84z"/>
  <path id="svg_60" fill="#fff" d="m453.68,839.700001a133.13,133.13 0 0 0 -17.66,0.83c-9.39,1.1 -16.56,-3 -17.81,-4.69s-7.72,-7.4 -12.69,-9.4c-2.43,-0.94 -3,-4 -2.89,-6.86c0,-0.15 0,-0.32 0,-0.47a28,28 0 0 1 0.8,-5.37l38.91,-0.83l3.37,4.57l0.52,0.7l2.05,2.79s0.93,1.22 2.15,3c2.06,3 4.94,7.43 5.71,10.36l0,0c1.23,4.69 -2.46,5.37 -2.46,5.37z"/>
  <path id="svg_61" opacity="0.1" d="m453.68,839.700001a133.13,133.13 0 0 0 -17.66,0.83c-9.38,1.1 -16.56,-3 -17.8,-4.69s-7.73,-7.45 -12.7,-9.38c-2.43,-0.94 -3,-4 -2.89,-6.86c2.78,0.65 8.62,2.31 10.91,5.2c3,3.86 8.37,10.35 16,10.76c6.16,0.33 21.16,-0.77 26.66,-1.21c1.18,4.67 -2.52,5.35 -2.52,5.35z"/>
  <path id="svg_62" opacity="0.1" d="m449.05,813.760001c-0.45,3.34 -1.84,4.24 -2.84,4.44a1.93,1.93 0 0 1 -0.74,0a2.46,2.46 0 0 1 -0.39,-0.06s-34.94,7.72 -42,1.47a4.89,4.89 0 0 1 -0.5,-0.52a28,28 0 0 1 0.8,-5.37l38.91,-0.83l3.37,4.57a6.61,6.61 0 0 1 3.36,-3.74l0.03,0.04z"/>
  <path id="svg_63" opacity="0.1" d="m494.05,818.100001c-0.78,0.86 -1.43,1.35 -1.84,1.18c-1.84,-0.74 -16.92,-3.31 -21.71,-1.1s-21,0.36 -21,0.36s0,-1.92 -0.09,-5a10.17,10.17 0 0 1 2.16,-0.66c7.86,-1.51 40.29,1.52 40.29,1.52s0.95,1.68 2.19,3.7z"/>
  <path id="svg_64" fill="#2196f3" d="m516.87,591.900001l-4.42,30.54l-5.14,20.24l-7.36,38.26l0,40.5s4.78,80.58 2.94,82.78s-8.83,14.73 -10.67,14s-16.92,-3.31 -21.71,-1.11s-21,0.37 -21,0.37s-0.37,-31.27 -2.21,-40.1s3.31,-46.36 3.31,-46.36l1.84,-20.23s2.58,-13.62 0.37,-17.3s3.31,-18 3.31,-18s-2.57,-8.11 -1.83,-12.89s1.83,-22.81 1.83,-22.81s-1.83,12.52 -6.94,19.87s-4.46,73.22 -4.46,73.22l0.36,57c9.21,30.18 0,27.23 0,27.23s-34.94,7.73 -42,1.47s-5.04,-45.66 -5.04,-45.66s-0.73,-31.64 2.21,-41.2s3.87,-44.89 3.87,-44.89s-0.19,-70.65 0,-75.42c0.14,-4 0,-39.81 0,-51c0,-2.08 0,-3.31 0,-3.31l4.22,-10.48l50,-6.26l23.92,0s36,8.46 39.72,12.11a0.83,0.83 0 0 1 0.2,0.22c2.41,3.53 -5.32,39.21 -5.32,39.21z"/>
  <path id="svg_65" opacity="0.1" d="m456.16,752.320001s11,26.49 16.19,28.33s-16.19,-28.33 -16.19,-28.33z"/>
  <path id="svg_66" opacity="0.1" d="m460.23,791.320001s37.14,1.84 36.77,5.89s-36.77,-5.89 -36.77,-5.89z"/>
  <path id="svg_67" opacity="0.1" d="m410.54,780.730001c1.47,1.39 28.33,4 26.12,6.54s-23.91,7.48 -23.91,7.48l-2.21,-14.02z"/>
  <path id="svg_68" opacity="0.1" d="m406.13,735.030001c0,1.1 5.52,35.32 7,36.79s13.61,2.94 13.61,2.94l-20.61,-39.73z"/>
  <path id="svg_69" fill="#3f3d56" d="m446.18,267.290001c-5.27,5.89 -7.55,14.24 -13.69,19.22c-3.73,3 -8.45,4.43 -12.79,6.47s-8.64,5.15 -9.93,9.77c-1.44,5.2 1.34,10.51 2.8,15.71c1.51,5.38 1.6,11 1.69,16.63c0.1,6.81 0.21,13.62 0.09,20.43c-0.18,10.61 -1.06,21.71 -6.69,30.7c20.33,6.47 41.95,7.35 63.27,8.18a63.84,63.84 0 0 0 12.29,-0.31a105.49,105.49 0 0 0 10.47,-2.65a80.28,80.28 0 0 1 20.86,-2.67c3.07,0 6.2,0.19 9.16,-0.61s5.81,-2.85 6.61,-5.81c0.71,-2.66 -0.33,-5.49 -1.69,-7.88c-2.48,-4.36 -6,-8 -8.66,-12.3a33.8,33.8 0 0 1 -2.17,-30.39c2.36,-5.49 6.16,-10.27 8.48,-15.77a33.26,33.26 0 0 0 -6.7,-35.28c-8.07,-8.26 -19.65,-11.46 -30.73,-13.16a27.91,27.91 0 0 1 -12.94,-5c-4.25,-2.8 -9.76,-3.48 -14.74,-2.86a24.06,24.06 0 0 0 -14.99,7.58z"/>
  <g id="svg_70" opacity="0.1">
   <path id="svg_71" d="m518.11,326.010001a33.27,33.27 0 0 0 -2.55,15.27a32.7,32.7 0 0 1 2.55,-10.84c2.35,-5.49 6.15,-10.27 8.47,-15.77a31.91,31.91 0 0 0 2.33,-14.52a31.1,31.1 0 0 1 -2.33,10.1c-2.32,5.5 -6.12,10.27 -8.47,15.76z"/>
   <path id="svg_72" d="m414.56,333.730001c0.06,3.92 0.12,7.85 0.13,11.77c0,-5.4 -0.05,-10.79 -0.13,-16.18c-0.08,-5.59 -0.18,-11.25 -1.69,-16.64c-1,-3.42 -2.48,-6.89 -3,-10.34c-0.89,4.9 1.64,9.87 3,14.76c1.51,5.34 1.61,11.04 1.69,16.63z"/>
   <path id="svg_73" d="m524.05,382.440001c-3,0.81 -6.08,0.63 -9.15,0.61a80.22,80.22 0 0 0 -20.85,2.62a106.2,106.2 0 0 1 -10.47,2.64a63.17,63.17 0 0 1 -12.3,0.32c-20.6,-0.81 -41.49,-1.68 -61.22,-7.57a33.94,33.94 0 0 1 -2,3.8c20.33,6.46 41.95,7.35 63.26,8.18a63.17,63.17 0 0 0 12.3,-0.32a103.41,103.41 0 0 0 10.43,-2.63a80.22,80.22 0 0 1 20.81,-2.65c3.07,0 6.19,0.19 9.15,-0.62s5.81,-2.84 6.61,-5.8a7.94,7.94 0 0 0 -0.1,-4.16c-0.89,2.8 -3.64,4.75 -6.47,5.58z"/>
  </g>
  <path id="svg_74" fill="#fbbebe" d="m494.43,370.590001c-0.74,1.66 -3.86,16 -4.6,17.47s-4.78,25 -5.15,26.32s-26.63,-5.52 -26.63,-5.52l-15.81,-13.25l-16.25,-16.17s-0.48,-14.59 11.49,-19.27a18.27,18.27 0 0 1 2.5,-0.78c14.52,-3.49 13.06,-47.64 13.06,-47.64l29.8,12.87s-5.52,25.76 -5.33,30.73c0.05,1.67 1.36,2.71 3.07,3.34a24.27,24.27 0 0 0 8.14,0.88s6.45,9.37 5.71,11.02z"/>
  <path id="svg_75" fill="#2196f3" d="m547.78,418.970001l4.23,1.11s3.13,4.76 -4.23,9.19a127.48,127.48 0 0 0 -13.43,9.39l-21.75,6.62l-4.19,-13.15l20.24,-15.36l19.13,2.2z"/>
  <path id="svg_76" opacity="0.1" d="m547.78,418.970001l4.23,1.11s3.13,4.76 -4.23,9.19a127.48,127.48 0 0 0 -13.43,9.39l-21.75,6.62l-4.19,-13.15l20.24,-15.36l19.13,2.2z"/>
  <path id="svg_77" fill="#2196f3" d="m389.05,431.670001l-8.46,8.28s15.26,17.66 27,18.76s19.31,-13.43 19.31,-13.43l-10.16,-16l-27.69,2.39z"/>
  <path id="svg_78" opacity="0.1" d="m389.05,431.670001l-8.46,8.28s15.26,17.66 27,18.76s19.31,-13.43 19.31,-13.43l-10.16,-16l-27.69,2.39z"/>
  <circle id="svg_79" opacity="0.1" r="29.43" cy="311.17" cx="469.41"/>
  <circle id="svg_80" fill="#fbbebe" r="29.43" cy="308.96" cx="469.41"/>
  <path id="svg_81" opacity="0.1" d="m522.21,556.030001a95,95 0 0 0 -19.69,4.41c-11,3.66 -97.2,0.06 -98.4,0c0,-2.08 0,-3.31 0,-3.31l4.22,-10.48l50,-6.26l23.92,0s36,8.46 39.72,12.11c0.15,2.2 0.23,3.53 0.23,3.53z"/>
  <path id="svg_82" opacity="0.1" d="m494.43,370.590001c-0.74,1.66 -3.86,16 -4.6,17.47s-4.78,25 -5.15,26.32s-26.63,-5.52 -26.63,-5.52l-15.81,-13.25l-16.25,-16.17s-0.48,-14.59 11.49,-19.27l29.72,34.17l13.38,-35.65a24.27,24.27 0 0 0 8.14,0.88s6.45,9.37 5.71,11.02z"/>
  <path id="svg_83" fill="#2196f3" d="m467.2,395.440001l-30.42,-35a12.75,12.75 0 0 0 -12.07,-0.89c-6.81,2.95 -15.27,5.34 -17.48,6.81s-10.49,10.57 -10.49,10.57l24.66,64.51l-10.86,42.49s1.66,21.71 -2.57,29.62a32.51,32.51 0 0 0 -3.5,16.37s1.29,10.49 -0.18,16a26.65,26.65 0 0 0 -0.19,11.22s87.39,3.68 98.42,0a94.18,94.18 0 0 1 19.69,-4.41s-2,-36.8 -4,-45.63s1.66,-42.49 1.66,-42.49l-2.39,-36.06l14.34,-37s-7.77,-23.72 -15.87,-26.11c0,0 -14.71,-3.5 -17.84,-5.15s-12.33,-3.13 -12.33,-3.13l-4.83,1.62l-13.75,36.66z"/>
  <rect id="svg_84" opacity="0.1" transform="rotate(3.890000104904175 18.920000076293835,-50.669998168945334) " ry="2.94" rx="2.94" height="107.18" width="70.04" y="392.940002" x="473.84"/>
  <rect id="svg_85" fill="#3f3d56" transform="rotate(3.890000104904175 18.77000045776395,-50.81999969482423) " ry="2.94" rx="2.94" height="107.18" width="70.04" y="390.59" x="475.9"/>
  <rect id="svg_86" fill="#fff" transform="rotate(3.890000104904175 18.80999946594243,-50.81999969482424) " height="92.22" width="61.02" y="398.64" x="480.409999"/>
  <rect id="svg_87" opacity="0.1" transform="matrix(1,0.07,-0.07,1,17.63,-51.04) " height="13.86" width="49.73" y="471.21" x="469.9"/>
  <rect id="svg_88" opacity="0.1" transform="rotate(3.890000104904175 21.440000534057678,-52.22999954223635) " height="7.24" width="7.91" y="477.69" x="531.710001"/>
  <rect id="svg_89" opacity="0.1" transform="rotate(3.890000104904175 20.129999160766552,-50.63999938964847) " height="7.24" width="40.49" y="460.740001" x="490.069999"/>
  <rect id="svg_90" fill="#3f3d56" transform="rotate(3.890000104904175 15.890000343322784,-51.229999542236364) " height="11.13" width="42.16" y="395.52" x="491.54"/>
  <rect id="svg_91" opacity="0.1" transform="rotate(3.890000104904175 15.890000343322784,-51.229999542236364) " height="11.13" width="42.16" y="395.52" x="491.54"/>
  <path id="svg_92" opacity="0.1" d="m470.88,554.000001s-0.37,54.46 -14.72,85.73c0,0 17.3,-41.21 17.3,-42.86s9.56,-18.95 7,-24.1s-9.58,-18.77 -9.58,-18.77z"/>
  <path id="svg_93" opacity="0.1" d="m471.66,301.600001a20.47,20.47 0 0 1 3.33,-13.71a16.89,16.89 0 0 0 13.06,17.8a2.21,2.21 0 0 1 -0.63,-2.42c2.05,2.32 3.62,5.07 5.94,7.11s5.8,3.26 8.53,1.81c3.71,-2 3.75,-7.27 2.79,-11.37a53.4,53.4 0 0 0 -12.29,-23.47a16.26,16.26 0 0 0 -12.9,-6.56c-5.68,-0.44 -11.58,0.06 -16.67,2.61a44.3,44.3 0 0 0 -8,5.59l-14,11.42a13.29,13.29 0 0 0 -3.4,3.58a9.8,9.8 0 0 0 -1.06,3.75a20.21,20.21 0 0 0 9.42,19.07a14.91,14.91 0 0 1 8.93,-14a3.88,3.88 0 0 1 1.39,2.89l2.95,-5.26a5.79,5.79 0 0 1 2,-2.37c1.82,-1 4.09,0.18 5.64,1.59s3.06,3.17 5.14,3.39l0.08,-7.83"/>
  <path id="svg_94" fill="#3f3d56" d="m471.66,300.500001a20.48,20.48 0 0 1 3.33,-13.72c-0.9,8 5.13,16.26 13.07,17.8a2.19,2.19 0 0 1 -0.63,-2.41c2.05,2.32 3.62,5.06 5.94,7.11s5.8,3.26 8.53,1.8c3.71,-2 3.75,-7.27 2.79,-11.36a53.4,53.4 0 0 0 -12.29,-23.47a19.67,19.67 0 0 0 -6.87,-5.34a20,20 0 0 0 -6,-1.22c-5.68,-0.44 -11.58,0.05 -16.67,2.6a44.86,44.86 0 0 0 -8,5.6l-14,11.42a13.15,13.15 0 0 0 -3.4,3.58a9.75,9.75 0 0 0 -1.06,3.75a20.2,20.2 0 0 0 9.42,19.06a14.93,14.93 0 0 1 8.93,-14a3.91,3.91 0 0 1 1.39,2.89l2.94,-5.24a5.73,5.73 0 0 1 2,-2.37c1.82,-1 4.09,0.18 5.64,1.59s3.06,3.16 5.14,3.39l0.08,-7.84"/>
  <path id="svg_95" fill="#fbbebe" d="m485.6,486.130001c-2.57,-1.3 -45.07,5.33 -45.07,5.33s-7,-2 -23.92,-4.78s-18,-19.32 -18,-19.32l-1.85,-33.11l5.71,-5l24.46,16s0.38,8.09 0,9.55c-0.24,1 -0.88,2.19 -0.82,3a1,1 0 0 0 0.82,0.9c1.66,0.42 24.28,4.08 24.28,4.08s52.43,-3.59 65.5,14.07a13.28,13.28 0 0 1 2.31,4.36c3.24,12.07 -31.09,6.07 -33.42,4.92z"/>
  <path id="svg_96" opacity="0.1" d="m519.05,481.280001c-2,0.89 -3.24,1.53 -3.24,1.53s-18.76,-0.55 -29.3,-4.37s-23.35,-3.14 -23.35,-3.14s-43.92,-7.56 -37.11,-17.43a1,1 0 0 0 0.82,0.9c1.66,0.42 24.28,4.08 24.28,4.08s52.43,-3.59 65.5,14.07a13.28,13.28 0 0 1 2.4,4.36z"/>
  <path id="svg_97" fill="#fbbebe" d="m537.29,423.020001s2.58,18.21 2.76,19.69s1.11,19.31 0,21.34s-2.76,5.33 -2.76,5.33s1.84,3.86 -5.52,5.34s-16,5.88 -16,5.88s-18.77,-0.55 -29.25,-4.41s-23.36,-3.13 -23.36,-3.13s-55.75,-9.57 -31.83,-21.25s40.84,4.14 40.84,4.14l26.67,-1.65s9.94,-6.08 12.7,-5.52a10.21,10.21 0 0 0 5.7,-0.92l0.19,-19.32l19.86,-5.52z"/>
  <path id="svg_98" opacity="0.1" d="m402.05,378.320001l-5.34,-0.28l-16.18,63s17.47,-4.42 25,0s21.34,5.33 21.34,5.33l-5.15,-50.22l-19.67,-17.83z"/>
  <path id="svg_99" fill="#2196f3" d="m402.05,377.210001l-5.34,-0.28l-16.18,63s17.47,-4.42 25,0s21.34,5.33 21.34,5.33l-5.15,-50.22l-19.67,-17.83z"/>
  <path id="svg_100" opacity="0.1" d="m524.42,391.010001l7.35,1.66s18.77,27 20.24,28.51s-7,7 -10.49,7s-20.6,2 -25.57,6.62s-2.9,-18.63 -2.9,-19.16s6.17,-15.2 6.17,-15.2l5.2,-9.43z"/>
  <path id="svg_101" fill="#2196f3" d="m524.42,389.910001l7.35,1.65s18.77,27.05 20.24,28.52s-7,7 -10.49,7s-20.6,2 -25.57,6.62s-2.9,-18.63 -2.9,-19.16s6.21,-15.25 6.21,-15.25l5.16,-9.38z"/>
  <g id="svg_102" opacity="0.1">
   <path id="svg_103" d="m474.94,286.870001a14.75,14.75 0 0 1 0.05,-2.3a20.47,20.47 0 0 0 -3.08,7.55l0,2.32s0,-0.05 0,-0.08l0,0.55c0,1.62 0,3.25 -0.05,4.87l-0.14,0l0,0.75c0,-0.26 0,-0.51 -0.05,-0.77c-2,-0.32 -3.43,-2 -4.92,-3.34s-3.82,-2.62 -5.64,-1.59a5.73,5.73 0 0 0 -2,2.37l-2.97,5.24a3.87,3.87 0 0 0 -1.39,-2.88a14.91,14.91 0 0 0 -8.93,14a20.32,20.32 0 0 1 -9.49,-15.93a20.22,20.22 0 0 0 9.49,18.13a14.93,14.93 0 0 1 8.93,-14a3.91,3.91 0 0 1 1.39,2.89l2.94,-5.24a5.73,5.73 0 0 1 2,-2.37c1.82,-1 4.09,0.18 5.64,1.59s3.06,3.16 5.14,3.39q0,-3.84 0.08,-7.66a20.37,20.37 0 0 1 3,-7.49z"/>
   <path id="svg_104" d="m471.56,296.940001c0.05,-0.68 0.13,-1.36 0.23,-2l0.11,-2.76a20.24,20.24 0 0 0 -0.34,4.76z"/>
   <path id="svg_105" d="m501.9,308.870001c-2.73,1.46 -6.21,0.24 -8.53,-1.8s-3.89,-4.79 -5.94,-7.11a2.21,2.21 0 0 0 0.63,2.42c-0.2,0 -0.39,-0.1 -0.58,-0.15c2,2.3 3.59,5 5.89,7s5.8,3.26 8.53,1.8s3.51,-4.88 3.27,-8.21c-0.18,2.62 -1.12,4.89 -3.27,6.05z"/>
   <path id="svg_106" d="m487.42,302.210001a17,17 0 0 1 -12.46,-14.86c-0.57,7.85 5.35,15.72 13.1,17.23a2.2,2.2 0 0 1 -0.64,-2.37z"/>
  </g>
  <path id="svg_107" fill="url(#b7415561-023b-44da-badb-9b3453976a8a)" d="m967.66,465.650001s-3.94,-0.55 -3.94,-6.28s-2.82,-16.46 -2.82,-16.46l0,0s-2.44,-18.67 -5.81,-21.63s-7.7,-20.34 -7.7,-20.34s-0.74,-9.43 -2.25,-11.46s-3.55,-7 -6.56,-14.09s-15.53,-11.95 -15.53,-11.95s-22.69,-13.16 -29.12,-17.45l0,0a9.94,9.94 0 0 1 -1.64,-1.24c-1.12,-1.46 -6,-1.49 -6,-1.49c-0.51,-3.23 -1,-6.93 -1.16,-10.28c0,-0.36 0,-0.72 0,-1.08a34.6,34.6 0 0 0 15.21,-18.82c0.12,-0.38 0.22,-0.77 0.33,-1.16a3.25,3.25 0 0 0 2,-1.76c0.57,-1.29 0.59,-2.79 1.31,-4c0.84,-1.42 2.44,-2.18 3.7,-3.24c3.18,-2.71 4,-7.26 3.85,-11.39c-0.1,-3.36 -0.64,-6.74 -0.43,-10.07c0,-0.28 0,-0.56 0.06,-0.84c0.06,-0.49 0.13,-1 0.22,-1.48c0.49,-2.48 1.56,-4.82 2.16,-7.28s0.66,-5.23 -0.74,-7.35c-2.05,-3.11 -6.32,-3.73 -10.07,-4c-4.25,-0.36 -8,0.1 -10.77,-3.43a37.7,37.7 0 0 0 -4.28,-5.16c-0.56,-0.52 -6,-3.85 -6,-4.06a24.31,24.31 0 0 0 -17,-1.31c-2.83,0.82 -5.48,2.16 -8.35,2.83c-6.16,1.46 -13.26,-0.12 -18.5,3.41c-2.92,2 -4.67,5.19 -6.31,8.28q-2,3.82 -4.06,7.65c-2.22,4.19 -4.46,8.45 -5.39,13.09a22.19,22.19 0 0 0 -0.37,3.07l0,0c0,0.37 0,0.74 0,1.11c0,0.16 0,0.32 0,0.48c0,0.34 0,0.68 0.06,1s0,0.41 0.07,0.62s0.09,0.68 0.15,1s0.18,0.89 0.3,1.32c0,0.19 0.12,0.37 0.18,0.56s0.22,0.67 0.35,1s0.14,0.35 0.22,0.52c0.15,0.35 0.33,0.69 0.51,1c0.08,0.13 0.14,0.26 0.22,0.39a11.34,11.34 0 0 0 0.92,1.34c2.13,2.67 5.29,4.37 7.62,6.87c0,0.1 0,0.2 0,0.3c0,0.27 0,0.54 0,0.82a34.23,34.23 0 0 0 15.68,27.9c0,0.38 0.05,0.77 0.07,1.16a57.09,57.09 0 0 1 -0.11,8.9a4.22,4.22 0 0 0 -3.32,-1.48a4.76,4.76 0 0 0 -1.28,0.11l-0.09,-0.07l0,0l0,0.09c-2.2,0.54 -4.91,2.83 -7.5,9.34c0,0 -7.88,8.88 -13.88,8.51s-21.19,9.25 -21.19,9.25s-14.82,9.61 -18,19.41a135.69,135.69 0 0 1 -6.39,16.28l-18.37,37.72l0,0l-3.37,30s1.87,13.31 1.5,15.35s7.69,20.34 7.69,20.34s26.63,46.78 37.51,49.18l0.78,-0.54a6.81,6.81 0 0 0 1.47,0.54l2.24,-1.57a23.41,23.41 0 0 1 -0.18,5.27c-1.49,4.63 0.57,34.77 3.19,40.68s1.69,83.41 1.69,83.41l-0.37,6.83s0,0.22 0.09,0.6l-0.09,1.62l0.27,0.14a19.33,19.33 0 0 1 -0.27,6.52c-0.94,3 -1.32,11.47 -1.32,11.47s-7.5,47.88 -3.94,57.5s6.57,20.16 6.57,20.16s3.75,12 0.18,14s-13.68,5.55 -11.62,10.54c1.9,4.62 9.11,17 10.18,18.81l-0.09,1l-1.47,15.93a20,20 0 0 0 1.69,6.08c1.61,3.48 4.73,7.07 10.69,6.68c1,-0.07 2.15,-0.18 3.28,-0.33c10.89,-1.47 24.29,-6.33 24.29,-6.33a9.58,9.58 0 0 1 -1.89,-1.57l0,0a5.49,5.49 0 0 1 -1.67,-4c0.16,-2.91 -5.27,-16.72 -6.63,-20.13l-0.31,-0.76s12.38,-12.95 10.32,-24.41c0,0 -13.7,-8 -9.19,-12.4s12.57,-17 12.57,-17s0.37,-47.15 0,-54.18a58.4,58.4 0 0 1 0.69,-14.64c0.15,-0.72 0.33,-1.43 0.52,-2.14a127.74,127.74 0 0 0 18.86,1.43q3.46,0 7,-0.14q0,1 0.09,2.16c0.52,11.68 1.49,32.17 2.28,39.78c1.12,10.9 7.31,40.31 7.31,40.31s-11.81,7.57 2.06,26.26c0,0 0,6.76 -0.92,7.75l0,0a84.62,84.62 0 0 0 -2.37,9.77c-0.58,3.51 -0.82,7.08 0.12,8.92c2.25,4.42 15.75,4.06 15.75,4.06l0,0a2.13,2.13 0 0 1 0.33,-0.05a19.27,19.27 0 0 1 14.29,4.3c5.13,4.12 24.59,2.32 35.14,1c4.13,-0.53 6.89,-1 6.89,-1a4.05,4.05 0 0 0 0.14,-1.44l0,0c-0.11,-2.59 -2.14,-8.27 -15.9,-13.34c0,0 -12.94,-8.7 -12.76,-16.28l-0.29,0l-1.49,0c0.94,-0.03 1.6,-0.03 1.6,-0.03s-5.07,-18.49 -3,-20s-4.13,-22 -4.13,-22s-3.55,-34.4 -3.75,-36.8a21.14,21.14 0 0 1 0.94,-6.1l-0.94,-18.87s-0.18,-6.27 0,-8.31a39.08,39.08 0 0 0 -0.42,-5.29c-0.09,-0.7 -0.18,-1.43 -0.28,-2.15c4.85,-1.23 8,-2.36 8,-2.36l-0.56,-65.65c4.12,-8 4.88,-25.56 4.86,-38c0,-8 -0.36,-13.92 -0.36,-13.92l5.63,-9.19s1.3,-11 -0.76,-13.41c-0.91,-1.09 -0.5,-2.22 0.25,-3.15a10.46,10.46 0 0 1 1.25,-0.88a1.57,1.57 0 0 1 -0.13,-0.22a9.94,9.94 0 0 1 1.25,-0.89s-2,-3.1 -0.21,-4.41c1.68,1.14 3.18,2.05 4.32,2.7c-0.08,0.73 -0.16,1.15 -0.16,1.15l0.48,-1c1.1,0.62 1.77,1 1.77,1s8.82,-17.57 8.63,-20.15s6,-13.5 6,-13.5s0.75,-5.74 4.13,-8.14s2.62,-19.79 2.62,-19.79s0.94,-9.06 3.19,-12.75s-2.01,-8.71 -2.01,-8.71zm-168.76,-7.71l0.17,4.19c-1,-1.61 -1.72,-2.76 -1.72,-2.76l1.55,-1.43z"/>
  <path id="svg_108" fill="#fff" d="m945.62,541.090001l-2.16,9.2s-17.3,-8.85 -20.41,-20.05s5.21,-15.47 5.21,-15.47l16.13,6.82l1.23,19.5z"/>
  <path id="svg_109" opacity="0.1" d="m945.62,541.090001l-2.16,9.2s-17.3,-8.85 -20.41,-20.05s5.21,-15.47 5.21,-15.47l16.13,6.82l1.23,19.5z"/>
  <path id="svg_110" fill="#fff" d="m848.53,854.200001s-16,5.88 -27,6.62c-5.84,0.39 -8.91,-3.19 -10.49,-6.64a20.3,20.3 0 0 1 -1.66,-6l1.45,-15.85l0.76,-8.43l23.37,-6.08l3.31,10.13l0.31,0.76c1.32,3.39 6.66,17.13 6.5,20a5.49,5.49 0 0 0 1.63,4a9.29,9.29 0 0 0 1.82,1.49z"/>
  <path id="svg_111" fill="#fff" d="m957.77,846.140001a4,4 0 0 1 -0.14,1.44s-34.22,5.7 -41.22,0a18.53,18.53 0 0 0 -14.36,-4.23s-13.24,0.36 -15.45,-4c-0.92,-1.83 -0.68,-5.38 -0.11,-8.87a85.07,85.07 0 0 1 2.32,-9.72l0.53,-0.42l3.15,-2.53l36.88,-1.09l0.28,0c-0.18,7.54 12.51,16.19 12.51,16.19c13.51,5 15.5,10.65 15.61,13.23z"/>
  <path id="svg_112" opacity="0.1" d="m957.78,846.140001a4.12,4.12 0 0 1 -0.15,1.44s-34.22,5.7 -41.21,0a18.53,18.53 0 0 0 -14.37,-4.23s-13.25,0.36 -15.46,-4c-0.91,-1.83 -0.68,-5.38 -0.11,-8.88c5.1,0.51 13.15,1.78 16.31,4.82c4.78,4.6 12.88,9.2 17.84,9.57c3.92,0.24 27.23,0.98 37.15,1.28z"/>
  <path id="svg_113" opacity="0.1" d="m848.53,854.200001s-16,5.88 -27,6.62c-5.84,0.39 -8.91,-3.19 -10.49,-6.64c4.08,1.37 9.73,2.8 12.7,1.49c3.52,-1.57 16,-2.57 23,-3a9.09,9.09 0 0 0 1.79,1.53z"/>
  <path id="svg_114" fill="#fbbebe" d="m872.27,380.310001c-13.2,-5.13 -30.18,-22.08 -25.94,-30a17.93,17.93 0 0 0 1.65,-6.36a58.05,58.05 0 0 0 0.12,-9a123.6,123.6 0 0 0 -1.77,-14.65s41.21,0.93 38.81,7c-0.7,1.79 -0.82,4.88 -0.62,8.33s0.69,7.38 1.21,10.69c0.71,4.53 1.44,8 1.44,8s-2.53,3.53 -4,3.72s8.04,29.62 -10.9,22.27z"/>
  <path id="svg_115" opacity="0.1" d="m838.54,828.660001l-0.31,0.34c-12.32,-14.9 -27.22,3.68 -27.22,3.68l-0.22,-0.4l0.76,-8.43l23.37,-6.08l3.31,10.13l0.31,0.76z"/>
  <path id="svg_116" opacity="0.1" d="m929.67,817.770001s-9,-0.18 -13.8,4.06s-28,0.91 -27,0a3.46,3.46 0 0 0 0.52,-1.53l3.15,-2.53l36.88,-1.09c0.14,0.7 0.25,1.09 0.25,1.09z"/>
  <path id="svg_117" fill="#2196f3" d="m853.87,700.760001a28.05,28.05 0 0 0 -1.52,5.13a58.71,58.71 0 0 0 -0.69,14.56c0.37,7 0,53.91 0,53.91s-7.91,12.51 -12.33,16.92s9,12.33 9,12.33c2,11.41 -10.12,24.29 -10.12,24.29c-12.32,-14.9 -27.22,3.67 -27.22,3.67s-8.1,-14 -10.12,-19s7.91,-8.45 11.4,-10.49s-0.18,-14 -0.18,-14s-2.94,-10.49 -6.44,-20.06s3.86,-57.2 3.86,-57.2s0.38,-8.47 1.29,-11.42a19.34,19.34 0 0 0 0.27,-6.48c-0.06,-0.73 -0.13,-1.33 -0.18,-1.75s-0.09,-0.6 -0.09,-0.6l0.14,-0.24l5,-9.32s40.33,13.88 37.93,19.75z"/>
  <path id="svg_118" fill="#2196f3" d="m929.67,816.670001s-9,-0.19 -13.8,4s-28,0.92 -27,0s0.91,-7.72 0.91,-7.72c-13.61,-18.59 -2,-26.13 -2,-26.13s-6.07,-29.25 -7.17,-40.1c-0.77,-7.57 -1.72,-28 -2.23,-39.57c-0.22,-5 -0.35,-8.45 -0.35,-8.45l11.02,-2.19l1.43,-0.28l26.82,-5.39s0.74,5 1.24,9.09a39.94,39.94 0 0 1 0.41,5.27c-0.17,2 0,8.27 0,8.27l0.92,18.76a21.64,21.64 0 0 0 -0.92,6.07c0.19,2.4 3.68,36.61 3.68,36.61s6.07,20.42 4,21.89s3.04,19.87 3.04,19.87z"/>
  <path id="svg_119" opacity="0.1" d="m885.14,327.330001c-0.7,1.79 -0.82,4.88 -0.62,8.33a34.25,34.25 0 0 1 -36.42,-0.68a123.6,123.6 0 0 0 -1.77,-14.65s41.21,0.93 38.81,7z"/>
  <path id="svg_120" fill="#fbbebe" d="m901.05,305.250001a34.21,34.21 0 0 1 -68.42,0.82c0,-0.28 0,-0.54 0,-0.82a34.22,34.22 0 0 1 68.44,0l-0.02,0z"/>
  <path id="svg_121" opacity="0.1" d="m872.27,380.310001c-13.2,-5.13 -30.18,-22.08 -25.94,-30a17.93,17.93 0 0 0 1.65,-6.36l18.07,14.86l11.18,9.17l8.5,-21.63c0.71,4.53 1.44,8 1.44,8s-2.53,3.53 -4,3.72s8.04,29.59 -10.9,22.24z"/>
  <polygon id="svg_122" fill="#2196f3" points="919 445.98 903.91 699.48 884.23 700.77 833.26 553.78 841.62 379.27 843.39 342.4 866.05 361.01 877.23 370.18 885.98 347.91 902.25 362.09 919 445.98"/>
  <path id="svg_123" opacity="0.1" d="m853.87,700.760001a28.05,28.05 0 0 0 -1.52,5.13a145,145 0 0 1 -41.3,-12.89l-0.27,-0.14l0.09,-1.61l0,-0.84l5,-9.32s40.4,13.8 38,19.67z"/>
  <path id="svg_124" opacity="0.1" d="m889.38,705.930001a101.29,101.29 0 0 1 -11.06,1.27c-0.22,-5 -0.35,-8.45 -0.35,-8.45l11.08,-2.24l0.33,9.42z"/>
  <path id="svg_125" opacity="0.1" d="m918.58,699.930001c-7.11,1.85 -18.1,3.93 -27.92,2.63l-0.14,-6.33l26.82,-5.39s0.71,4.96 1.24,9.09z"/>
  <path id="svg_126" opacity="0.1" d="m890.48,703.720001c-41,7 -78.55,-13.07 -78.55,-13.07l0.36,-6.8s0.93,-77.09 -1.65,-83s-4.59,-35.84 -3.13,-40.41s-5.33,-73.57 -5.33,-73.57l-1.1,-28l-40.29,-16.37l18,-37.53a135.61,135.61 0 0 0 6.26,-16.2c3.13,-9.75 17.66,-19.32 17.66,-19.32s14.9,-9.56 20.79,-9.2s13.61,-8.46 13.61,-8.46c5.7,-14.53 10.86,-8 10.86,-8c0,0.7 0,0 -0.28,2.15c-2,15.95 32.34,66.35 32.83,67.25l0,0l3.31,79.66l3.31,100.81l3.34,110.06z"/>
  <path id="svg_127" fill="#fff" d="m889.38,703.720001c-41,7 -78.56,-13.07 -78.56,-13.07l0.37,-6.8s0.92,-77.09 -1.66,-83s-4.59,-35.87 -3.12,-40.48s-5.36,-73.54 -5.36,-73.54l-1.11,-28l-40.28,-16.37l18,-37.53a137.73,137.73 0 0 0 6.26,-16.19c3.13,-9.72 17.71,-19.3 17.71,-19.3s14.9,-9.56 20.78,-9.2s13.64,-8.45 13.64,-8.45c5.71,-14.53 12,-8 12,-8c0,0.7 -0.6,1 -0.28,2.15c4.4,15.47 31.24,66.35 31.73,67.25l0,0l3.31,79.66l3.24,100.86l3.33,110.01z"/>
  <path id="svg_128" opacity="0.1" d="m878.33,415.440001c-4.41,-1.84 -27.77,-28.51 -27.77,-28.51l0,-6.07c-0.85,-2 -5.91,-0.78 -10,0.62l1.76,-36.87l2,1.66c4.37,15.46 33.53,68.28 34.01,69.17z"/>
  <path id="svg_129" fill="#fff" d="m879.44,413.240001c-4.42,-1.85 -27.78,-28.51 -27.78,-28.51l0,-6.08c-0.85,-2 -5.9,-0.78 -10,0.62l1.73,-36.83l2,1.65c4.41,15.44 33.56,68.25 34.05,69.15z"/>
  <path id="svg_130" opacity="0.1" d="m811.93,546.240001c0.55,0 28.51,-2.94 28.51,-2.94s16.93,33.3 15.82,41.39s-3.12,15.27 -9.93,14s-36.65,1 -36.65,1l2.25,-53.45z"/>
  <path id="svg_131" fill="#fff" d="m810.82,544.030001c0.56,0 28.52,-2.94 28.52,-2.94s16.92,33.35 15.82,41.35s-3.13,15.27 -9.93,14s-36.66,1 -36.66,1l2.25,-53.41z"/>
  <path id="svg_132" fill="#fbbebe" d="m831.89,528.440001s25.66,13.8 26.21,18s-13.06,-1.84 -16,-2.58a38.14,38.14 0 0 0 -5.89,-0.92l-19.61,0.53l15.29,-15.03z"/>
  <circle id="svg_133" opacity="0.1" r="2.7" cy="414.46" cx="871.16"/>
  <circle id="svg_134" fill="#3f3d56" r="2.7" cy="413.36" cx="871.16"/>
  <circle id="svg_135" opacity="0.1" r="2.7" cy="531.34" cx="876.13"/>
  <circle id="svg_136" fill="#3f3d56" r="2.7" cy="530.23" cx="876.13"/>
  <circle id="svg_137" opacity="0.1" r="2.7" cy="472.9" cx="873.86"/>
  <circle id="svg_138" fill="#3f3d56" r="2.7" cy="471.8" cx="873.86"/>
  <path id="svg_139" fill="#fff" d="m936.1,542.380001s1.84,2.76 0,4s0.18,4.42 0.18,4.42s-4.59,2.68 -2.57,5.11s0.74,13.34 0.74,13.34l-5.52,9.19s0.33,5.89 0.35,13.85c0,12.42 -0.73,29.88 -4.77,37.84l0.54,65.31s-19.33,7.07 -35.51,4.91l-2.4,-104.8s3.5,-59.43 4.79,-70.83a118.65,118.65 0 0 0 0.92,-17.85s-0.55,-17.84 -2.4,-26.11c0,0 -2,-35.88 -2.2,-45.81c-0.09,-4.75 0.16,-18.61 0.44,-31.79c0.31,-14.41 0.66,-28 0.66,-28l-3.65,-28.89s3.65,-0.36 4.75,1.1a10.53,10.53 0 0 0 1.6,1.23l0,0c6.31,4.26 28.57,17.36 28.57,17.36s12.32,4.9 15.27,11.92s5,12 6.43,14s2.21,11.4 2.21,11.4s4.24,17.3 7.55,20.23s5.69,21.53 5.69,21.53l-29.25,23s-2.57,38.26 -3.12,39.74s10.7,34.6 10.7,34.6z"/>
  <path id="svg_140" fill="#fff" d="m937.21,542.380001s1.83,2.76 0,4s0.17,4.42 0.17,4.42s-4.59,2.68 -2.57,5.11s0.74,13.34 0.74,13.34l-5.5,9.19s0.33,5.89 0.36,13.85c0,12.42 -0.73,29.88 -4.77,37.84l0.55,65.31s-19.33,7.07 -35.51,4.91l-2.39,-104.8s3.49,-59.43 4.79,-70.83a117.56,117.56 0 0 0 0.91,-17.85s-0.55,-17.84 -2.39,-26.11c0,0 -2,-35.88 -2.21,-45.81c-0.09,-4.75 0.16,-18.61 0.44,-31.79c0.31,-14.41 0.66,-28 0.66,-28l-4.82,-29.28s4.82,0 5.93,1.49a9.49,9.49 0 0 0 1.6,1.23l0,0c6.3,4.26 28.56,17.36 28.56,17.36s12.29,4.9 15.29,11.92s5,12 6.43,14s2.21,11.4 2.21,11.4s4.24,17.3 7.55,20.23s5.7,21.53 5.7,21.53l-29.25,23s-2.57,38.26 -3.13,39.74s10.65,34.6 10.65,34.6z"/>
  <path id="svg_141" opacity="0.1" d="m902.18,383.650001l2.65,7.7l-13.91,14c0.31,-14.41 0.66,-28 0.66,-28l-4.82,-29.27s4.82,0 5.93,1.49a9.49,9.49 0 0 0 1.6,1.23l0,0l11.82,34.09l-3.93,-1.24z"/>
  <path id="svg_142" fill="#fff" d="m901.05,381.440001l2.65,7.69l-13.9,14c0.3,-14.41 0.66,-28 0.66,-28l-4.83,-29.28s4.83,0 5.93,1.49a10,10 0 0 0 1.6,1.23l0,0l11.89,34.12l-4,-1.25z"/>
  <path id="svg_143" opacity="0.1" d="m901.05,305.250001a34.11,34.11 0 0 1 -1.68,10.61a1.42,1.42 0 0 1 -1.08,-0.26c-0.27,-9 -4.69,-17.46 -10.14,-24.65a26.11,26.11 0 0 0 -5.5,-5.7a10.77,10.77 0 0 0 -7.46,-2.11c-3,0.41 -5.65,2.45 -8.68,2.71c-4,0.33 -7.58,-2.44 -11.55,-2.57a11.32,11.32 0 0 0 -8.49,3.94a23.16,23.16 0 0 0 -4.55,8.43a49.38,49.38 0 0 0 -2.54,14.56c-0.05,2.8 -0.32,6.31 -2.92,7.33a14.9,14.9 0 0 0 -3.77,-11.4l-0.06,-0.07c0,-0.28 0,-0.54 0,-0.82a34.22,34.22 0 0 1 68.44,0l-0.02,0z"/>
  <path id="svg_144" fill="#512e4e" d="m881.05,250.920001a23.56,23.56 0 0 0 -16.62,-1.3c-2.77,0.82 -5.38,2.15 -8.19,2.82c-6,1.45 -13,-0.12 -18.15,3.39c-2.86,2 -4.58,5.16 -6.18,8.24l-4,7.61c-2.18,4.17 -4.38,8.41 -5.29,13s-0.36,9.73 2.55,13.43c2.11,2.68 5.25,4.37 7.55,6.9a15,15 0 0 1 3.76,11.43c2.6,-1 2.86,-4.53 2.92,-7.33a49.44,49.44 0 0 1 2.54,-14.56a23.16,23.16 0 0 1 4.55,-8.43a11.33,11.33 0 0 1 8.49,-3.95c4,0.14 7.59,2.91 11.55,2.57c3,-0.25 5.66,-2.29 8.68,-2.7a10.72,10.72 0 0 1 7.46,2.11a25.62,25.62 0 0 1 5.49,5.7c5.46,7.2 9.89,15.62 10.15,24.65c1.13,0.82 2.76,-0.26 3.32,-1.54s0.58,-2.78 1.29,-4c0.82,-1.41 2.39,-2.17 3.62,-3.23c3.12,-2.69 3.9,-7.22 3.78,-11.33s-0.92,-8.28 -0.14,-12.32c0.47,-2.47 1.53,-4.8 2.11,-7.25s0.65,-5.2 -0.72,-7.31c-2,-3.09 -6.21,-3.71 -9.88,-4c-4.17,-0.36 -7.9,0.1 -10.56,-3.41a39.09,39.09 0 0 0 -4.2,-5.14c-0.55,-0.53 -5.88,-3.83 -5.88,-4.05z"/>
  <path id="svg_145" opacity="0.1" d="m772.33,461.800001l-10.44,-19.31l-3.31,29.8s1.84,13.24 1.47,15.27s7.54,20.23 7.54,20.23s26.13,46.55 36.8,48.94l36,-25.76l-9.56,-12.14s-3.31,-1.29 -4.14,0c0,0 -17.76,-30.54 -19.59,-32.74s-1.48,-6.63 -1.48,-6.63s-2.76,-2.94 -1.84,-5.7s-5.28,-12.32 -5.28,-12.32l5.7,-5.33l-31.87,5.69z"/>
  <path id="svg_146" fill="#fff" d="m762.44,440.280001l-2.76,2.21l-3.31,29.8s1.84,13.24 1.47,15.27s7.55,20.23 7.55,20.23s26.12,46.55 36.79,48.94l36.06,-25.76l-9.57,-12.14s-3.31,-1.29 -4.14,0c0,0 -17.75,-30.54 -19.59,-32.74s-1.47,-6.63 -1.47,-6.63s-2.76,-2.94 -1.84,-5.7s-5.34,-12.32 -5.34,-12.32l5.7,-5.33l-39.55,-15.83z"/>
  <path id="svg_147" opacity="0.1" d="m933.71,557.060001c2,2.43 0.74,13.35 0.74,13.35l-5.52,9.13s0.33,5.9 0.35,13.86l-9.28,2.9a5.52,5.52 0 0 1 -7.16,-5.44l1.61,-51.6l21.65,8.27c-1.84,1.28 0.18,4.42 0.18,4.42s-4.59,2.68 -2.57,5.11z"/>
  <path id="svg_148" fill="#fff" d="m934.81,555.960001c2,2.42 0.74,13.34 0.74,13.34l-5.5,9.14s0.33,5.89 0.36,13.85l-9.45,2.95a5.39,5.39 0 0 1 -7,-5.31l1.61,-51.78l21.64,8.29c-1.85,1.28 0.17,4.42 0.17,4.42s-4.59,2.67 -2.57,5.1z"/>
  <path id="svg_149" fill="#fbbebe" d="m941.99,531.340001s-1.47,9.39 -5.15,9.94s-5.33,15.19 -9,14.68s-1.24,-13.62 -1.11,-16.16s-4,-13.06 -0.92,-15.45s12.88,0 12.88,0l3.3,6.99z"/>
  <path id="svg_150" opacity="0.1" d="m949.77,459.040001l6.93,-14s2.77,10.67 2.77,16.37s3.86,6.26 3.86,6.26s4.23,5 2,8.65s-3.12,12.69 -3.12,12.69s0.73,17.29 -2.58,19.68s-4.05,8.1 -4.05,8.1s-6.07,10.85 -5.88,13.43s-8.46,20.05 -8.46,20.05s4.23,-21.71 -20.42,-31.09c0,0 -0.19,-7.36 1.65,-9.38s4.71,-3 2.91,-13.16s-0.52,-22.41 -0.52,-24.86s5.52,-17.72 5.52,-17.72l19.39,4.98z"/>
  <path id="svg_151" fill="#fff" d="m952.85,443.040001l6.06,2s2.77,10.67 2.77,16.37s3.86,6.26 3.86,6.26s4.23,5 2,8.65s-3.13,12.69 -3.13,12.69s0.74,17.29 -2.57,19.68s-4,8.1 -4,8.1s-6.07,10.85 -5.88,13.43s-8.47,20.05 -8.47,20.05s4.23,-21.71 -20.42,-31.09c0,0 -0.18,-7.36 1.66,-9.38s4.71,-3 2.91,-13.16s-0.52,-22.41 -0.52,-24.86s5.52,-17.72 5.52,-17.72l20.21,-11.02z"/>
  <path id="svg_152" opacity="0.1" d="m818.97,805.910001s9.66,-6.07 16,-1.66s-16,1.66 -16,1.66z"/>
  <path id="svg_153" opacity="0.1" d="m894.05,787.140001s8.55,-1.1 15.73,6.63s-15.73,-6.63 -15.73,-6.63z"/>
  <g id="svg_154" opacity="0.1">
   <path id="svg_155" d="m906.54,303.530001c-1.23,1.07 -2.81,1.82 -3.63,3.23c-0.7,1.21 -0.72,2.71 -1.28,4s-2.19,2.36 -3.33,1.54c-0.26,-9 -4.69,-17.45 -10.14,-24.65a25.57,25.57 0 0 0 -5.49,-5.69a10.75,10.75 0 0 0 -7.47,-2.12c-3,0.41 -5.64,2.45 -8.67,2.71c-4,0.33 -7.59,-2.44 -11.56,-2.57a11.28,11.28 0 0 0 -8.48,3.94a23.16,23.16 0 0 0 -4.55,8.43a49.44,49.44 0 0 0 -2.54,14.56c-0.06,2.79 -0.32,6.27 -2.9,7.31a13.84,13.84 0 0 1 0,2.23c2.61,-1 2.87,-4.53 2.93,-7.33a49.44,49.44 0 0 1 2.54,-14.56a23.16,23.16 0 0 1 4.55,-8.43a11.32,11.32 0 0 1 8.48,-3.95c4,0.14 7.6,2.91 11.56,2.57c3,-0.25 5.66,-2.29 8.67,-2.7a10.75,10.75 0 0 1 7.47,2.11a25.62,25.62 0 0 1 5.49,5.7c5.45,7.2 9.88,15.62 10.14,24.65c1.14,0.82 2.77,-0.26 3.33,-1.54s0.58,-2.78 1.28,-4c0.82,-1.41 2.4,-2.17 3.63,-3.23c3.12,-2.69 3.9,-7.22 3.78,-11.33c0,-0.13 0,-0.25 0,-0.38c-0.2,3.58 -1.15,7.21 -3.81,9.5z"/>
   <path id="svg_156" d="m832.71,302.830001c-2.29,-2.53 -5.43,-4.23 -7.54,-6.91a14.51,14.51 0 0 1 -2.91,-8.18a15.41,15.41 0 0 0 2.91,10.39c2.11,2.68 5.25,4.37 7.54,6.9a15,15 0 0 1 3.78,8.92a15,15 0 0 0 -3.78,-11.12z"/>
   <path id="svg_157" d="m912.29,272.630001c-0.59,2.45 -1.64,4.78 -2.12,7.25a23.15,23.15 0 0 0 -0.31,5.06a19.41,19.41 0 0 1 0.31,-2.85c0.48,-2.47 1.53,-4.8 2.12,-7.25a12.56,12.56 0 0 0 0.33,-4.14a13.9,13.9 0 0 1 -0.33,1.93z"/>
  </g>
  <ellipse id="svg_158" opacity="0.1" fill="#2196f3" ry="15.65" rx="97.44" cy="823.23" cx="132.73"/>
  <rect id="svg_159" fill="#535461" height="141.17" width="6.27" y="523.42" x="129.6"/>
  <path id="svg_160" fill="#3f3d56" d="m175.28,664.170001l-0.4,6.36l-0.55,9l-0.23,3.74l-0.56,9l-0.24,3.74l-0.55,9l-6.33,102.07a17.28,17.28 0 0 1 -17.25,16.22l-32.87,0a17.27,17.27 0 0 1 -17.25,-16.29l-6.33,-102.07l-0.55,-9l-0.23,-3.74l-0.57,-9l-0.23,-3.74l-0.55,-9l-0.4,-6.36a9,9 0 0 1 8.94,-9.51l67.22,0a9,9 0 0 1 8.93,9.58z"/>
  <polygon id="svg_161" fill="#9d9cb5" points="174.88 670.52 174.32 679.5 91.14 679.5 90.58 670.52 174.88 670.52"/>
  <polygon id="svg_162" fill="#9d9cb5" points="174.09 683.24 173.54 692.22 91.93 692.22 91.37 683.24 174.09 683.24"/>
  <polygon id="svg_163" fill="#9d9cb5" points="173.3 695.97 172.75 704.94 92.72 704.94 92.16 695.97 173.3 695.97"/>
  <path id="svg_164" fill="#2196f3" d="m81.05,576.340001c36.52,26.42 51.73,67.74 51.73,67.74s-44,-1.51 -80.53,-27.93s-51.76,-67.71 -51.76,-67.71s44,1.48 80.56,27.9z"/>
  <path id="svg_165" stroke-width="2" stroke-miterlimit="10" stroke="#535461" fill="none" d="m0.49,548.440001s45.67,25.35 60.32,46.34s71.93,49.32 71.93,49.32"/>
  <path id="svg_166" fill="#2196f3" d="m104.58,523.120001c19.88,14.37 28.16,36.86 28.16,36.86s-24,-0.82 -43.83,-15.19s-28.16,-36.87 -28.16,-36.87s23.96,0.82 43.83,15.2z"/>
  <path id="svg_167" stroke-width="2" stroke-miterlimit="10" stroke="#535461" fill="none" d="m60.75,507.920001s24.86,13.8 32.84,25.22s39.15,26.84 39.15,26.84"/>
  <path id="svg_168" fill="#2196f3" d="m161.62,558.840001c-22.83,25.09 -27.66,57.88 -27.66,57.88s32.19,-7.9 55,-33s27.66,-57.88 27.66,-57.88s-32.17,7.91 -55,33z"/>
  <path id="svg_169" stroke-width="2" stroke-miterlimit="10" stroke="#535461" fill="none" d="m216.64,525.850001s-29.74,25.72 -37.3,43.44s-45.38,47.43 -45.38,47.43"/>
 </g>
</svg>